<?xml version="1.0" encoding="UTF-8"?>
<svg xmlns="http://www.w3.org/2000/svg" viewBox="0 0 1500 1500">
  <defs>
    <style>
      .cls-1 {
        fill: #ae8373;
      }

      .cls-2 {
        fill: #fedcc9;
      }

      .cls-3 {
        fill: #1c191a;
      }

      .cls-4 {
        fill: #e58243;
      }

      .cls-5 {
        fill: #f4904f;
      }

      .cls-6 {
        fill: #a0001c;
      }

      .cls-7 {
        fill: #59001c;
      }

      .cls-8 {
        fill: #00a4b6;
      }

      .cls-9 {
        fill: #fbd5bf;
      }

      .cls-10 {
        fill: #0b0036;
      }

      .cls-11 {
        fill: #230e4a;
      }

      .cls-12 {
        fill: #d2001c;
      }

      .cls-13 {
        fill: #370e6e;
      }

      .cls-14 {
        fill: #ecbf9e;
      }

      .cls-15 {
        fill: #9f8fff;
      }

      .cls-16 {
        fill: #580091;
      }

      .cls-17 {
        fill: #a500c8;
      }

      .cls-18 {
        fill: #d4ae9a;
      }

      .cls-19 {
        fill: #d4ab9b;
      }

      .cls-20 {
        fill: #00c850;
      }

      .cls-21 {
        fill: #6b001c;
      }

      .cls-22 {
        fill: #fac6ab;
      }

      .cls-23 {
        fill: #2a1e34;
      }

      .cls-24 {
        fill: #37276e;
      }

      .cls-25 {
        fill: #f4c9af;
      }

      .cls-26 {
        fill: #41001c;
      }

      .cls-27 {
        fill: #366aff;
      }

      .cls-28 {
        fill: #6c6d00;
      }

      .cls-29 {
        fill: #23174b;
      }

      .cls-30 {
        fill: #460c82;
      }

      .cls-31 {
        fill: #7d51ff;
        opacity: .33;
      }

      .cls-32 {
        fill: #dbbf9e;
      }

      .cls-33 {
        fill: #00173b;
      }

      .cls-34 {
        fill: #002b48;
      }

      .cls-35 {
        fill: #291e3e;
      }

      .cls-36 {
        fill: #5a00ff;
      }

      .cls-37 {
        fill: #12141e;
      }

      .cls-38 {
        fill: #e9001c;
      }

      .cls-39 {
        fill: #ffddc8;
      }

      .cls-40 {
        fill: #40227c;
      }

      .cls-41 {
        fill: #80001c;
      }

      .cls-42 {
        fill: #f08c4e;
      }

      .cls-43 {
        fill: #ff001c;
      }

      .cls-44 {
        fill: #ff6e12;
      }
    </style>
  </defs>
  <g id="background">
    <polygon class="cls-31" points="1469.25 23.89 203.27 1026.77 -21.3 480.47 1276.76 724.68 1469.25 23.89"/>
    <polygon class="cls-15" points="140.49 315.26 430.15 1002.45 1118.79 -23.65 140.49 315.26"/>
  </g>
  <g id="base">
    <g>
      <polygon class="cls-36" points="334.45 1360.44 238.72 1156.3 495.86 1056.47 638.05 1316.49 334.45 1360.44"/>
      <polygon class="cls-17" points="830.7 1340.94 1118.79 1096.02 1182.86 1102.13 1110.05 1315.84 830.7 1340.94"/>
      <polygon class="cls-5" points="769.14 1360.44 638.05 1316.49 525.5 1332.79 769.14 1380.29 769.14 1360.44"/>
      <polygon class="cls-34" points="894.67 1360.44 769.14 1380.29 769.14 1360.44 830.7 1340.94 899.7 1334.74 894.67 1360.44"/>
      <polygon class="cls-36" points="894.67 1286.56 991.84 1056.47 1075.86 1068.23 894.67 1286.56"/>
      <polygon class="cls-36" points="1118.79 1096.02 1097.98 1096.02 894.67 1286.56 1118.79 1096.02"/>
      <polygon class="cls-44" points="1075.86 1068.23 1097.98 1096.02 894.67 1286.56 1075.86 1068.23"/>
      <polygon class="cls-28" points="931.78 1038.17 991.84 1056.47 909.61 1251.18 931.78 1038.17"/>
      <polygon class="cls-8" points="495.86 1056.47 537.23 1040.41 556.65 1167.65 495.86 1056.47"/>
      <polygon class="cls-20" points="894.67 1360.44 1110.05 1315.84 899.7 1334.74 894.67 1360.44"/>
      <polygon class="cls-39" points="668.56 1026.77 849.95 1021.57 943.55 958.29 996.32 849.41 1019.03 725.81 1017.9 641.98 1014.48 410.81 745.95 301.38 630.32 314.15 569.6 355.6 504.64 453.73 487.52 585.49 478.52 705.65 485.81 815.27 527.63 899.43 554.61 953.74 668.56 1026.77"/>
      <polygon class="cls-39" points="769.14 1360.44 830.7 1340.94 894.67 1286.56 909.61 1251.18 939.68 960.9 849.95 1021.57 668.56 1026.77 554.61 953.74 527.63 899.43 537.23 1040.41 556.65 1167.65 638.05 1316.49 769.14 1360.44"/>
      <polygon class="cls-42" points="450.99 1073.89 638.05 1316.49 495.86 1056.47 450.99 1073.89"/>
      <polygon class="cls-4" points="378.26 1102.13 312.18 1127.78 548.12 1329.51 378.26 1102.13"/>
    </g>
  </g>
  <g id="face-shading">
    <polygon class="cls-2" points="758.52 623.08 752.22 277.4 627.87 317.79 637.55 699.39 758.52 623.08"/>
    <polygon class="cls-9" points="635.65 315.26 584.35 340.11 627.87 643.72 635.65 315.26"/>
    <polygon class="cls-32" points="553.47 357.68 584.35 340.11 626.19 633.35 575.25 632.61 553.47 357.68"/>
    <polygon class="cls-25" points="758.52 623.08 839.3 695.05 852.21 348.7 752.22 269.87 758.52 623.08"/>
    <polygon class="cls-32" points="908.3 396.99 841.84 684.38 852.21 348.7 908.3 396.99"/>
    <polygon class="cls-14" points="980.1 458.8 908.3 396.99 841.84 684.38 980.1 458.8"/>
    <polygon class="cls-14" points="557.58 377.75 574.34 577.94 504.89 441.3 557.58 377.75"/>
    <polygon class="cls-19" points="471.26 483.82 504.89 435.72 574.34 577.94 471.26 483.82"/>
    <polygon class="cls-19" points="480.04 694.33 499.64 717.89 550.35 860.51 541.05 926.46 488.34 820.36 480.04 694.33"/>
    <polygon class="cls-32" points="499.64 717.89 509.79 623.08 488.6 592.65 480.04 694.33 499.64 717.89"/>
    <polygon class="cls-22" points="550.35 860.51 636.03 961.95 557.78 931.42 550.35 860.51"/>
    <polygon class="cls-14" points="542.62 915.33 557.78 931.42 550.35 860.51 542.62 915.33"/>
    <polygon class="cls-14" points="521.54 779.5 548.18 681.37 508.69 633.35 499.64 717.89 521.54 779.5"/>
    <polygon class="cls-14" points="671.58 682.79 651.39 722.03 684.31 746.17 649.89 722.03 671.58 682.79"/>
    <polygon class="cls-14" points="834.04 687.19 846.35 724.68 813.09 748.68 849.57 725.02 834.04 687.19"/>
    <polygon class="cls-14" points="649.89 722.03 571.1 722.76 548.18 681.37 671.58 682.79 649.89 722.03"/>
    <polygon class="cls-9" points="668.85 875.68 583.75 900.05 629.24 953.91 710.63 943.34 718.31 929.08 668.85 875.68"/>
    <polygon class="cls-9" points="1011.38 645.41 1015.87 680.98 961.72 716.95 922.17 712.68 1011.38 645.41"/>
    <polygon class="cls-22" points="1005.12 804.53 1015.87 680.98 961.72 716.95 961.72 849.61 1005.12 804.53"/>
    <polygon class="cls-19" points="961.83 920.79 961.72 849.61 1005.12 804.53 996.32 849.41 961.83 920.79"/>
    <polygon class="cls-14" points="906.53 953.91 961.72 849.61 961.83 920.79 906.53 953.91"/>
    <polygon class="cls-22" points="813.58 962.99 961.72 849.61 906.53 953.91 813.58 962.99"/>
    <polygon class="cls-9" points="802.38 880.66 891.25 903.54 813.58 962.99 755.24 945.67 743.1 929.92 802.38 880.66"/>
    <polygon class="cls-32" points="834.04 687.19 849.57 725.02 961.72 728.78 965.16 690.59 834.04 687.19"/>
    <polygon class="cls-9" points="684.31 746.17 571.1 722.76 649.89 722.03 684.31 746.17"/>
    <polygon class="cls-9" points="813.09 748.68 849.57 725.02 961.72 728.78 813.09 748.68"/>
    <polygon class="cls-32" points="571.1 722.76 521.54 779.5 548.18 681.37 571.1 722.76"/>
    <polygon class="cls-9" points="595.56 806.42 571.1 722.76 521.54 779.5 595.56 806.42"/>
    <polygon class="cls-25" points="670.1 682.79 750.75 717.89 756.71 603.65 670.1 682.79"/>
    <polygon class="cls-2" points="834.04 667.76 752.22 698.46 758.52 603.65 834.04 667.76"/>
    <polygon class="cls-32" points="696.94 693.83 651.39 722.03 671.58 682.79 696.94 693.83"/>
    <polygon class="cls-14" points="846.35 724.68 800.56 698.92 834.04 687.19 846.35 724.68"/>
    <polygon class="cls-9" points="813.09 748.68 684.31 746.17 752.22 734.9 813.09 748.68"/>
    <polygon class="cls-18" points="846.35 724.68 752.22 734.9 753.18 712.68 799.18 705.33 846.35 724.68"/>
    <polygon class="cls-14" points="813.09 748.68 824.72 738.41 838.23 720.11 752.22 734.9 813.09 748.68"/>
    <polygon class="cls-14" points="684.31 746.17 649.39 722.03 752.22 734.9 684.31 746.17"/>
    <polygon class="cls-18" points="696.94 693.83 649.39 722.03 752.22 734.9 753.18 712.68 696.94 693.83"/>
    <polygon class="cls-22" points="687.56 699.39 684.31 746.17 649.39 722.03 687.56 699.39"/>
    <polygon class="cls-22" points="821.02 710.44 849.57 725.02 813.09 748.68 821.02 710.44"/>
    <polygon class="cls-1" points="684.31 722.03 752.22 689.68 696.94 693.83 687.56 699.39 684.31 722.03"/>
    <polygon class="cls-1" points="821 726.36 752.22 689.68 800.56 698.92 821.02 710.44 821 726.36"/>
    <polygon class="cls-14" points="671.58 682.79 754.09 654.84 758.01 594.36 671.58 682.79"/>
    <polygon class="cls-32" points="836.3 675.99 758.01 594.36 754.1 655.16 836.3 675.99"/>
    <polygon class="cls-25" points="891.25 903.54 961.72 728.78 961.72 849.61 891.25 903.54"/>
    <polygon class="cls-25" points="595.56 806.42 583.75 900.05 550.35 860.51 521.54 779.5 595.56 806.42"/>
    <polygon class="cls-14" points="952.17 752.46 903.7 736.54 961.72 728.78 952.17 752.46"/>
    <polygon class="cls-39" points="891.25 903.54 813.09 748.68 903.7 736.54 952.17 752.46 891.25 903.54"/>
    <polygon class="cls-39" points="571.1 722.76 721.66 753.09 595.56 806.42 571.1 722.76"/>
    <polygon class="cls-9" points="737.8 747.21 734.23 828.93 721 802.29 737.8 747.21"/>
    <polygon class="cls-22" points="750.54 803.26 737.8 747.21 734.23 828.93 750.54 803.26"/>
    <polygon class="cls-9" points="743.58 774.16 759.2 760.42 737.8 747.21 743.58 774.16"/>
    <polygon class="cls-22" points="729.61 772.7 710.46 757.3 737.8 747.21 729.61 772.7"/>
    <polygon class="cls-22" points="734.23 828.93 705.23 826.74 687.56 809.25 721 802.29 734.23 828.93"/>
    <polygon class="cls-9" points="758.55 826.74 772.55 810.71 750.54 803.26 734.23 828.93 758.55 826.74"/>
    <polygon class="cls-32" points="891.25 903.54 903.7 736.54 952.17 752.46 891.25 903.54"/>
    <polygon class="cls-22" points="730.74 889.71 728.51 864.46 802.38 880.66 730.74 889.71"/>
    <polygon class="cls-25" points="668.85 875.68 728.51 864.46 730.74 889.71 668.85 875.68"/>
    <polygon class="cls-32" points="752.22 1167.65 751.52 1357.52 819.09 1198.28 752.22 1167.65"/>
    <polygon class="cls-19" points="677.31 1205.37 752.22 1167.65 751.52 1357.52 677.31 1205.37"/>
    <polygon class="cls-32" points="651.1 1150.78 752.22 1085.13 752.22 1167.65 677.31 1205.37 651.1 1150.78"/>
    <polygon class="cls-19" points="819.09 1198.28 752.22 1167.65 752.22 1085.13 845.32 1146.64 819.09 1198.28"/>
    <polygon class="cls-25" points="752.22 1085.13 752.22 1044.77 652.16 1150.09 752.22 1085.13"/>
    <polygon class="cls-32" points="845.32 1146.64 752.22 1044.77 752.22 1085.13 845.32 1146.64"/>
    <polygon class="cls-32" points="652.16 1150.09 583.75 1002.45 701.54 1048.23 652.16 1150.09"/>
    <polygon class="cls-19" points="752.22 1044.77 701.54 1048.23 652.16 1150.09 752.22 1044.77"/>
    <polygon class="cls-32" points="845.32 1146.64 795.11 1044.76 752.22 1044.77 845.32 1146.64"/>
    <polygon class="cls-32" points="906.53 987.34 845.32 1146.64 852.32 1031.13 906.53 987.34"/>
    <polygon class="cls-19" points="795.11 1044.76 852.32 1031.13 845.32 1146.64 795.11 1044.76"/>
    <polygon class="cls-32" points="638.05 1316.49 583.75 1002.45 528.76 916.36 638.05 1316.49"/>
    <polygon class="cls-19" points="556.42 1167.59 574.86 1085.13 528.76 916.36 537.23 1040.41 556.42 1167.59"/>
    <polygon class="cls-19" points="939.42 963.38 893.61 1171.52 875.92 1302.49 894.67 1286.56 909.61 1251.18 939.42 963.38"/>
    <polygon class="cls-25" points="891.25 903.54 794.44 862.3 728.51 864.46 891.25 903.54"/>
    <polygon class="cls-22" points="583.75 900.05 728.51 864.46 696.94 856.64 583.75 900.05"/>
    <polygon class="cls-32" points="939.42 963.38 893.61 1171.52 882.05 1051.05 906.53 987.34 939.42 963.38"/>
    <polygon class="cls-22" points="845.32 1146.64 882.05 1051.05 893.61 1171.52 875.92 1302.49 845.32 1146.64"/>
    <polygon class="cls-19" points="819.09 1198.28 875.92 1302.49 845.32 1146.64 819.09 1198.28"/>
    <polygon class="cls-22" points="830.7 1340.94 819.09 1198.28 751.52 1357.52 769.14 1360.44 830.7 1340.94"/>
    <polygon class="cls-22" points="875.92 1302.49 819.09 1198.28 830.7 1340.94 875.92 1302.49"/>
    <polygon class="cls-22" points="750.87 1357.52 651.16 1150.09 637.41 1316.49 750.87 1357.52"/>
    <polygon class="cls-19" points="583.75 1002.45 652.16 1150.09 638.05 1316.49 583.75 1002.45"/>
    <polygon class="cls-25" points="638.05 1316.49 574.86 1085.13 556.42 1167.59 638.05 1316.49"/>
    <polygon class="cls-39" points="571.1 722.76 609.88 730.78 595.56 806.42 571.1 722.76"/>
    <polygon class="cls-32" points="603.65 826.72 583.75 900.05 592.17 833.28 603.65 826.72"/>
  </g>
  <g id="additional-details">
    <polygon points="684.31 721.51 692.94 712.68 708.66 714.61 721.76 724.51 723.59 731.28 712.16 736.69 686.8 732.51 684.31 721.51"/>
    <polygon points="772.51 728.75 771.14 723.39 785.97 712.68 807.63 713.51 821 726.36 810.79 732.84 783.73 732.84 772.51 728.75"/>
    <polygon points="813.09 851.43 738.36 842.55 715.57 842.55 628.92 831.79 705.23 826.74 734.23 828.93 758.55 826.74 813.09 851.43"/>
    <polygon points="728.51 864.46 794.44 862.3 813.09 851.43 738.36 842.55 715.57 842.55 628.92 831.79 665.01 841.98 697.83 857.05 728.51 864.46"/>
    <polygon points="544.99 501.08 556.08 475.78 580.03 468.93 694.98 451.9 735.47 465.97 715.26 489.53 629.37 495.66 544.99 501.08"/>
    <polygon points="815.49 523.77 806.34 492.63 817.41 478.79 846.35 465.48 965.01 506.29 905.44 516.27 815.49 523.77"/>
    <polygon class="cls-26" points="813.09 851.43 738.36 842.55 794.44 862.3 813.09 851.43"/>
    <polygon class="cls-26" points="628.92 831.79 668.47 836.7 665.01 841.98 628.92 831.79"/>
    <polygon class="cls-21" points="738.36 842.55 708.33 839.08 697.83 857.05 728.51 864.46 738.36 842.55"/>
    <polygon class="cls-7" points="794.44 862.3 728.51 864.46 738.36 842.55 794.44 862.3"/>
    <polygon class="cls-7" points="708.33 839.08 668.47 836.7 665.01 841.98 697.83 857.05 708.33 839.08"/>
  </g>
  <g id="hair">
    <polygon points="488.34 820.36 465.29 781.25 464.12 602.65 440.74 641.7 440.74 539.88 475.52 427.32 521.54 354.74 569.21 309.03 596.64 240.76 641.35 183.87 682.7 161.58 719.13 160.06 765.94 168.39 811.61 208.3 886.94 219.69 980.88 276.85 990.76 301.38 1022.56 392.49 1063.77 506.83 1066 565.78 1062.49 582.44 1057.09 608.09 1076.31 652.9 1049.15 645.83 1033.11 722.03 1024.49 784.06 1005.12 804.53 1015.87 680.98 1006.36 543.61 834.04 414.69 785.68 463.04 742.02 463.04 667.9 408.4 733.14 415.51 777.07 400.7 796.14 340.11 737.47 307.61 627.87 317.79 589.76 347.33 509.45 446.47 481 672.51 488.34 820.36"/>
    <polygon points="528.45 900.73 557.78 931.42 630.03 953.48 710.63 943.34 718.31 929.08 668.85 875.68 730.74 889.71 802.38 880.66 742.02 928.5 755.24 945.67 813.58 962.99 906.53 953.91 961.83 920.79 944.68 957.9 852.32 1031.13 795.11 1044.76 701.54 1048.23 660.83 1035.27 583.75 1002.45 529.98 916.99 528.45 900.73"/>
    <polygon points="575.25 842.95 595.56 806.42 710.63 757.3 729.61 772.89 721 802.29 603.65 826.72 575.25 842.95"/>
    <polygon points="750.54 803.26 743.58 774.23 759.2 760.42 877.09 820.36 891.25 864.47 848.66 836.45 750.54 803.26"/>
    <polygon class="cls-3" points="667.9 408.4 742.02 463.04 728.36 430.69 667.9 408.4"/>
    <polygon class="cls-16" points="733.14 415.51 667.9 408.4 728.36 430.69 733.14 415.51"/>
    <polygon points="785.68 463.04 790.83 419.55 728.36 430.69 742.02 463.04 785.68 463.04"/>
    <polygon class="cls-13" points="777.07 400.7 733.14 415.51 728.36 430.69 790.83 419.55 777.07 400.7"/>
    <polygon class="cls-16" points="796.14 340.11 817.42 368.62 790.83 419.55 777.07 400.7 796.14 340.11"/>
    <polygon class="cls-3" points="785.68 463.04 790.83 419.55 817.42 368.62 834.04 414.69 785.68 463.04"/>
    <polygon class="cls-40" points="746.86 312.81 834.04 301.38 852.21 276.39 852.21 326.12 746.86 312.81"/>
    <polygon class="cls-3" points="817.42 368.62 746.86 312.81 852.21 326.12 945.97 498.43 817.42 368.62"/>
    <polygon points="746.86 312.81 691.48 274.15 763.39 282.49 746.86 312.81"/>
    <polygon class="cls-3" points="817.42 268.42 806.34 305.01 746.86 312.81 763.39 282.49 817.42 268.42"/>
    <polygon class="cls-13" points="811.61 208.3 817.42 268.42 763.39 282.49 811.61 208.3"/>
    <polygon class="cls-11" points="682.67 161.59 811.61 208.3 765.94 168.39 719.13 160.06 682.67 161.59"/>
    <polygon class="cls-16" points="779.46 257.76 739.8 182.29 811.61 208.3 779.46 257.76"/>
    <polygon class="cls-16" points="641.35 183.87 763.39 227.17 739.8 182.29 682.67 161.59 641.35 183.87"/>
    <polygon class="cls-13" points="596.64 240.76 569.21 309.03 588.58 348.79 627.87 317.79 596.64 240.76"/>
    <polygon class="cls-16" points="641.35 183.87 596.64 240.76 627.87 317.79 654.48 213.18 641.35 183.87"/>
    <polygon class="cls-13" points="763.39 227.17 654.48 213.18 641.35 183.87 763.39 227.17"/>
    <polygon class="cls-16" points="763.39 282.49 763.39 227.17 779.46 257.76 763.39 282.49"/>
    <polygon class="cls-13" points="722.11 221.87 763.39 262.18 763.39 227.17 722.11 221.87"/>
    <polygon class="cls-3" points="654.48 213.18 640.06 269.87 722.11 221.87 654.48 213.18"/>
    <polygon points="738.35 307.59 627.87 317.79 640.06 269.87 738.35 307.59"/>
    <polygon class="cls-3" points="691.48 274.15 746.86 312.81 640.06 269.87 691.48 274.15"/>
    <polygon class="cls-16" points="763.39 262.18 691.48 274.15 763.39 282.49 763.39 262.18"/>
    <polygon class="cls-13" points="722.11 221.87 691.48 274.15 763.39 262.18 722.11 221.87"/>
    <polygon class="cls-16" points="640.06 269.87 722.11 221.87 691.48 274.15 640.06 269.87"/>
    <polygon class="cls-37" points="945.97 498.43 834.04 414.69 817.42 368.62 945.97 498.43"/>
    <polygon class="cls-11" points="817.42 368.62 882.82 382.38 945.97 498.43 817.42 368.62"/>
    <polygon class="cls-37" points="746.86 312.81 813.21 321.19 817.42 368.62 746.86 312.81"/>
    <polygon class="cls-13" points="682.67 161.59 719.13 160.06 811.61 208.3 682.67 161.59"/>
    <polygon class="cls-11" points="509.45 446.47 569.21 309.03 588.58 348.79 509.45 446.47"/>
    <polygon class="cls-13" points="521.54 354.74 509.45 446.47 569.21 309.03 521.54 354.74"/>
    <polygon class="cls-30" points="475.52 427.32 499.49 525.61 521.54 354.74 475.52 427.32"/>
    <polygon points="440.74 641.7 498.53 543.49 458.8 557.56 440.74 641.7"/>
    <polygon class="cls-11" points="440.74 539.88 458.8 557.56 440.74 641.7 440.74 539.88"/>
    <polygon class="cls-13" points="475.52 427.32 440.74 539.88 458.8 557.56 485.66 468.93 475.52 427.32"/>
    <polygon class="cls-11" points="504.89 543.49 485.66 468.93 458.8 557.56 504.89 543.49"/>
    <polygon class="cls-3" points="484.18 567.88 465.29 781.25 464.02 602.13 484.18 567.88"/>
    <polygon points="483.28 674.57 465.29 781.25 484.18 561.63 494.47 586.33 483.28 674.57"/>
    <polygon class="cls-11" points="488.34 820.36 465.29 781.25 481.6 684.53 488.34 820.36"/>
    <polygon class="cls-24" points="945.97 498.43 933.27 326.12 882.82 382.38 945.97 498.43"/>
    <polygon class="cls-11" points="852.21 276.39 933.27 326.12 882.82 382.38 852.21 326.12 852.21 276.39"/>
    <polygon class="cls-13" points="806.34 305.01 817.42 268.42 852.21 276.39 834.04 301.38 806.34 305.01"/>
    <polygon class="cls-16" points="852.21 276.39 886.94 219.69 811.61 208.3 817.42 268.42 852.21 276.39"/>
    <polygon class="cls-24" points="933.27 326.12 886.94 219.69 852.21 276.39 933.27 326.12"/>
    <polygon class="cls-11" points="980.88 276.85 945.97 498.43 933.27 326.12 980.88 276.85"/>
    <polygon class="cls-13" points="886.94 219.69 933.27 326.12 980.88 276.85 886.94 219.69"/>
    <polygon class="cls-3" points="945.97 498.43 1014.23 368.62 980.88 276.85 945.97 498.43"/>
    <polygon class="cls-11" points="1014.23 368.62 945.97 498.43 1005.58 592.33 1014.23 368.62"/>
    <polygon class="cls-24" points="1063.77 506.83 1014.23 368.62 1005.58 592.33 1063.77 506.83"/>
    <polygon class="cls-11" points="1015.87 680.98 1005.58 592.33 1063.77 506.83 1015.87 680.98"/>
    <polygon class="cls-11" points="1076.31 652.9 1034.67 612.61 1057.09 608.09 1076.31 652.9"/>
    <polygon class="cls-24" points="1027.2 639.79 1076.31 652.9 1034.67 612.61 1027.2 639.79"/>
    <polygon class="cls-24" points="1057.09 608.09 1063.77 506.83 1034.67 612.61 1057.09 608.09"/>
    <polygon class="cls-24" points="1027.2 639.79 1015.87 680.98 1033.11 722.03 1027.2 639.79"/>
    <polygon points="1049.22 645.85 1027.2 639.79 1033.11 722.03 1049.22 645.85"/>
    <polygon class="cls-16" points="735.47 465.97 684.73 470.69 694.98 451.9 735.47 465.97"/>
    <polygon class="cls-3" points="715.26 489.53 735.47 465.97 684.73 470.69 715.26 489.53"/>
    <polygon class="cls-13" points="694.98 451.9 580.03 468.93 592.61 476.49 684.73 470.69 694.98 451.9"/>
    <polygon points="715.26 489.53 684.73 470.69 592.61 476.49 576.53 501.08 715.26 489.53"/>
    <polygon class="cls-16" points="580.03 468.93 556.08 475.78 592.61 476.49 580.03 468.93"/>
    <polygon class="cls-3" points="576.53 501.08 554.1 480.29 556.08 475.78 592.61 476.49 576.53 501.08"/>
    <polygon points="806.34 492.63 866.26 500.3 817.42 528.41 806.34 492.63"/>
    <polygon class="cls-3" points="817.41 478.79 806.34 492.63 866.26 500.3 817.41 478.79"/>
    <polygon class="cls-16" points="846.35 465.48 817.41 478.79 866.26 500.3 846.35 465.48"/>
    <polygon class="cls-13" points="954.92 502.75 846.35 465.48 866.26 506.55 954.92 502.75"/>
    <polygon class="cls-13" points="891.25 864.47 853.71 820.36 877.09 820.36 891.25 864.47"/>
    <polygon class="cls-11" points="848.66 836.45 853.71 820.36 891.25 864.47 848.66 836.45"/>
    <polygon class="cls-3" points="743.58 774.23 853.71 820.36 848.66 836.45 743.58 774.23"/>
    <polygon points="750.54 803.26 743.58 774.23 848.66 836.45 750.54 803.26"/>
    <polygon class="cls-16" points="853.71 820.36 743.58 774.23 759.2 760.42 877.09 820.36 853.71 820.36"/>
    <polygon class="cls-11" points="575.25 842.95 605.37 812.44 603.65 826.72 575.25 842.95"/>
    <polygon class="cls-13" points="595.56 806.42 605.37 812.44 575.25 842.95 595.56 806.42"/>
    <polygon class="cls-3" points="603.65 826.72 726.43 773.7 605.37 812.44 603.65 826.72"/>
    <polygon class="cls-16" points="595.56 806.42 605.37 812.44 729.61 772.89 710.63 757.3 595.56 806.42"/>
    <polygon class="cls-13" points="730.74 889.71 730.74 943.34 668.85 875.68 730.74 889.71"/>
    <polygon class="cls-11" points="802.38 880.66 730.74 889.71 730.74 940.31 802.38 880.66"/>
    <polygon points="718.03 929.51 660.83 1035.27 701.54 1048.23 718.03 929.51"/>
    <polygon class="cls-3" points="743.1 929.92 829.14 1036.65 795.11 1044.76 743.1 929.92"/>
    <polygon class="cls-3" points="730.74 940.31 742.02 1046.73 743.1 929.92 730.74 940.31"/>
    <polygon points="718.03 929.51 742.02 1046.73 730.74 940.31 718.03 929.51"/>
    <polygon class="cls-3" points="701.54 1048.23 718.03 929.51 742.02 1046.73 701.54 1048.23"/>
    <polygon points="743.1 929.92 795.11 1044.76 742.02 1046.73 743.1 929.92"/>
    <polygon class="cls-3" points="660.83 1035.27 630.03 953.48 710.63 943.34 660.83 1035.27"/>
    <polygon points="583.75 1002.45 630.03 953.48 660.83 1035.27 583.75 1002.45"/>
    <polygon class="cls-3" points="552.94 953.48 630.03 953.48 583.75 1002.45 552.94 953.48"/>
    <polygon points="557.78 931.42 552.94 953.48 630.03 953.48 557.78 931.42"/>
    <polygon class="cls-3" points="527.63 899.43 528.76 916.36 552.94 953.48 557.78 931.42 527.63 899.43"/>
    <polygon points="813.58 962.99 755.24 945.67 829.14 1036.65 813.58 962.99"/>
    <polygon class="cls-3" points="852.32 1031.13 813.58 962.99 829.14 1036.65 852.32 1031.13"/>
    <polygon points="857.57 958.69 813.58 962.99 852.32 1031.13 857.57 958.69"/>
    <polygon class="cls-3" points="894.67 997.55 857.57 958.69 852.32 1031.13 894.67 997.55"/>
    <polygon points="906.53 953.91 857.57 958.69 894.67 997.55 906.53 953.91"/>
    <polygon class="cls-3" points="944.68 957.9 906.53 953.91 894.67 997.55 944.68 957.9"/>
    <polygon points="961.83 920.79 906.53 953.91 944.68 957.9 961.83 920.79"/>
  </g>
  <g id="glasses">
    <polygon id="base-2" data-name="base" class="cls-43" points="890.75 728.52 925.85 725.02 1004.18 672.8 1041.8 594.55 1040.3 551.32 1031.87 532.45 1022.63 519.95 997.65 504.05 977.07 498.43 937.12 498.43 916.96 504.38 897.1 501.37 860.47 500.1 818.95 514.56 785.38 550.27 782.43 552.47 739.59 550.66 723.64 525.97 706.91 508.67 682.35 493.14 654.39 486.69 619.87 489.07 598.64 482.3 575.57 478.79 548.18 479.03 516.34 488.86 501.97 502.09 485.39 533.87 483.28 552.12 484.78 578.49 492.42 606.8 508.97 639.52 549.22 684.38 590.39 710.24 616.36 711.71 643.91 701.74 671.58 687.19 707.01 652.62 721.22 628.56 734.77 599.23 743.54 589.03 758.2 587.88 770.72 592 786.88 616.51 819.95 675.99 839.3 695.05 890.75 728.52"/>
    <g id="glasses_details" data-name="glasses details">
      <polygon class="cls-10" points="914.99 531.21 905.23 712.68 933.27 523.77 914.99 531.21"/>
      <polygon class="cls-10" points="894.26 520.85 914.99 531.21 905.23 712.68 894.26 520.85"/>
      <polygon class="cls-29" points="933.27 523.77 953.99 517.8 905.23 712.68 933.27 523.77"/>
      <polygon class="cls-29" points="894.26 520.85 871.1 517.8 905.23 712.68 894.26 520.85"/>
      <polygon class="cls-27" points="953.99 517.8 984.47 523.77 905.23 712.68 953.99 517.8"/>
      <polygon class="cls-10" points="871.1 517.8 840.6 521.67 905.23 712.68 871.1 517.8"/>
      <polygon class="cls-29" points="984.47 523.77 1010.07 552.54 905.23 712.68 984.47 523.77"/>
      <polygon class="cls-29" points="840.6 521.67 817.42 540.96 905.23 712.68 840.6 521.67"/>
      <polygon class="cls-35" points="1010.07 552.54 1013.72 603.65 905.23 712.68 1010.07 552.54"/>
      <polygon class="cls-35" points="817.42 540.96 799.18 578.14 905.23 712.68 817.42 540.96"/>
      <polygon class="cls-23" points="1013.72 603.65 999.1 645.18 905.23 712.68 1013.72 603.65"/>
      <polygon class="cls-23" points="799.18 578.14 799.18 615.24 905.23 712.68 799.18 578.14"/>
      <polygon class="cls-33" points="999.1 645.18 957.65 690.9 905.23 712.68 999.1 645.18"/>
      <polygon class="cls-33" points="799.18 615.24 836.97 678.93 905.23 712.68 799.18 615.24"/>
      <polygon class="cls-10" points="614.57 514.73 605.37 697.71 640.23 506.55 614.57 514.73"/>
      <polygon class="cls-10" points="587.99 501.08 614.57 514.73 605.37 697.71 587.99 501.08"/>
      <polygon class="cls-29" points="667.22 506.55 640.23 506.55 605.37 697.71 667.22 506.55"/>
      <polygon class="cls-29" points="587.99 501.08 559.88 501.08 605.37 697.71 587.99 501.08"/>
      <polygon class="cls-27" points="667.22 506.55 692.77 517.8 605.37 697.71 667.22 506.55"/>
      <polygon class="cls-10" points="531.26 515.24 559.88 501.08 605.37 697.71 531.26 515.24"/>
      <polygon class="cls-29" points="692.77 517.8 710.66 540.96 605.37 697.71 692.77 517.8"/>
      <polygon class="cls-29" points="513.88 540.96 531.26 515.24 605.37 697.71 513.88 540.96"/>
      <polygon class="cls-35" points="710.66 540.96 721.4 574.53 605.37 697.71 710.66 540.96"/>
      <polygon class="cls-35" points="513.88 540.96 509.79 582.19 605.37 697.71 513.88 540.96"/>
      <polygon class="cls-23" points="721.4 574.53 710.66 619.33 605.37 697.71 721.4 574.53"/>
      <polygon class="cls-23" points="509.79 582.19 518.99 623.08 605.37 697.71 509.79 582.19"/>
      <polygon class="cls-33" points="710.66 619.33 667.22 673.17 605.37 697.71 710.66 619.33"/>
      <polygon class="cls-33" points="518.99 623.08 557.58 670.11 605.37 697.71 518.99 623.08"/>
    </g>
    <polygon class="cls-41" points="919.25 716.95 894.26 719.24 890.75 728.52 925.85 725.02 919.25 716.95"/>
    <polygon class="cls-6" points="1004.18 672.8 1002.07 667.49 919.25 716.95 925.85 725.02 1004.18 672.8"/>
    <polygon class="cls-12" points="1041.8 594.55 1033.11 593.9 1002.07 667.49 1004.18 672.8 1041.8 594.55"/>
    <polygon class="cls-6" points="839.3 695.05 844.64 690.59 894.26 719.24 890.75 728.52 839.3 695.05"/>
    <polygon class="cls-12" points="819.95 675.99 822.93 670.52 844.64 690.59 839.3 695.05 819.95 675.99"/>
    <polygon class="cls-38" points="786.88 616.51 822.93 670.52 819.95 675.99 786.88 616.51"/>
    <polygon class="cls-38" points="1033.11 593.9 1032.17 551.55 1040.3 551.32 1041.8 594.55 1033.11 593.9"/>
    <polygon class="cls-12" points="1031.87 532.45 1023.68 534.33 1032.17 551.55 1040.3 551.32 1031.87 532.45"/>
    <polygon class="cls-6" points="1022.63 519.95 1008.31 521.67 1023.68 534.33 1031.87 532.45 1022.63 519.95"/>
    <polygon class="cls-41" points="997.65 504.05 982.98 508.17 1008.31 521.67 1022.63 519.95 997.65 504.05"/>
    <polygon class="cls-6" points="977.07 498.43 977.07 505.71 982.98 508.17 997.65 504.05 977.07 498.43"/>
    <polygon class="cls-12" points="937.12 498.43 941.61 506.55 977.07 505.71 977.07 498.43 937.12 498.43"/>
    <polygon class="cls-6" points="916.96 504.38 916.96 515.55 941.61 506.55 937.12 498.43 916.96 504.38"/>
    <polygon class="cls-41" points="897.1 501.37 891.31 509.31 916.96 515.55 916.96 504.38 897.1 501.37"/>
    <polygon class="cls-6" points="860.47 500.1 862.79 506.99 891.31 509.31 897.1 501.37 860.47 500.1"/>
    <polygon class="cls-12" points="818.95 514.56 826.52 520.85 862.79 506.99 860.47 500.1 818.95 514.56"/>
    <polygon class="cls-38" points="782.43 552.47 788.88 558.53 826.52 520.85 818.95 514.56 782.43 552.47"/>
    <polygon class="cls-41" points="590.39 710.24 592.98 702.65 614.57 704.09 616.36 711.71 590.39 710.24"/>
    <polygon class="cls-6" points="671.58 687.19 668.85 678.93 614.57 704.09 616.36 711.71 643.91 701.74 671.58 687.19"/>
    <polygon class="cls-6" points="549.22 684.38 554.1 675.99 592.98 702.65 590.39 710.24 549.22 684.38"/>
    <polygon class="cls-12" points="707.01 652.62 699.76 649.96 668.85 678.93 671.58 687.19 707.01 652.62"/>
    <polygon class="cls-38" points="721.22 628.56 707.01 652.62 699.76 649.96 721.22 628.56"/>
    <polygon class="cls-12" points="554.1 675.99 512.4 628.65 508.97 639.52 549.22 684.38 554.1 675.99"/>
    <polygon class="cls-12" points="492.42 606.8 503.31 602.13 512.4 628.65 508.97 639.52 492.42 606.8"/>
    <polygon class="cls-38" points="484.78 578.49 498.53 578.49 503.31 602.13 492.42 606.8 484.78 578.49"/>
    <polygon class="cls-38" points="483.28 552.12 498.53 552.12 498.53 578.49 484.78 578.49 483.28 552.12"/>
    <polygon class="cls-38" points="485.39 533.87 498.53 536.02 498.53 552.12 483.28 552.12 485.39 533.87"/>
    <polygon class="cls-38" points="501.97 502.09 513.88 508.29 498.53 536.02 485.39 533.87 501.97 502.09"/>
    <polygon class="cls-12" points="516.34 488.86 524.39 497.89 513.88 508.29 501.97 502.09 516.34 488.86"/>
    <polygon class="cls-6" points="548.18 479.03 550.35 488.86 524.39 497.89 516.34 488.86 548.18 479.03"/>
    <polygon class="cls-41" points="575.57 478.79 574.34 487.68 550.35 488.86 548.18 479.03 575.57 478.79"/>
    <polygon class="cls-6" points="598.64 482.3 598.64 493.15 574.34 487.68 575.57 478.79 598.64 482.3"/>
    <polygon class="cls-6" points="619.87 489.07 618.72 501.08 598.64 493.15 598.64 482.3 619.87 489.07"/>
    <polygon class="cls-41" points="654.39 486.69 654.39 494.6 618.72 501.08 619.87 489.07 654.39 486.69"/>
    <polygon class="cls-12" points="682.35 493.14 679.11 499.9 654.39 494.6 654.39 486.69 682.35 493.14"/>
    <polygon class="cls-6" points="706.91 508.67 700.09 513.04 679.11 499.9 682.35 493.14 706.91 508.67"/>
    <polygon class="cls-12" points="723.64 525.97 715.26 529.27 700.09 513.04 706.91 508.67 723.64 525.97"/>
    <polygon class="cls-38" points="739.59 550.66 735.47 556.48 715.26 529.27 723.64 525.97 739.59 550.66"/>
    <polygon class="cls-6" points="788.77 558.53 735.47 556.48 739.59 550.66 785.2 552.47 788.77 558.53"/>
  </g>
</svg>